<?xml version="1.0" encoding="utf-8"?>
<!-- Generator: Adobe Illustrator 27.8.1, SVG Export Plug-In . SVG Version: 6.00 Build 0)  -->
<svg version="1.1" id="Layer_1" xmlns="http://www.w3.org/2000/svg" xmlns:xlink="http://www.w3.org/1999/xlink" x="0px" y="0px"
	 viewBox="0 0 1024 1024" style="enable-background:new 0 0 1024 1024;" xml:space="preserve">
<style type="text/css">
	.st0{fill:#9E2721;}
	.st1{fill:#E288A6;}
	.st2{fill:#FFFFFF;}
</style>
<rect class="st0" width="1024" height="1024"/>
<rect x="-1182.1" class="st0" width="1024" height="1024"/>
<g>
	<g>
		<g>
			<path class="st1" d="M-677.5,385.6c-17-24.1-33.4-48.5-51-72.1c-49.3-66.1-105.9-124.3-183.3-157.2
				c-49.7-21.1-100.8-29.8-153.1-7.7c-2.7,1.2-5.5,2.3-7.9,4.1c-5.1,3.8-9.8,7.9-14.7,11.9c5.7,1.8,11.3,3.6,17.1,5.2
				c22.4,6.3,38.7,18.9,46.4,41.9c1.6,4.7,7.7,9.7,12.7,11.1c19.6,5.4,31.5,16.7,36.4,36.9c1.4,5.6,8.4,11.8,14.2,14
				c23.9,9.1,33.5,22,34.7,47.7c0.2,4.2,4.4,10.1,8.2,11.8c25,11.2,31.9,23.7,27.4,49.8c-0.6,3.6,2.6,9.2,5.7,11.7
				c22.1,18.1,23.6,37.9,5.3,58.9c-3.7,4.2-4.4,12.6-3.8,18.8c6.2,66.3-36.1,130.5-98.5,144.4c14.5-10.1,27.1-17.7,38.3-26.9
				c31.2-25.8,43.7-60.9,39-99.5c-1.7-13.6-15.8-28.6-28.2-37.5c-18.1-13-29.6-26.4-25.9-49.7c0.3-2.1-3.9-6.7-6.5-7.2
				c-23.2-4.5-33.5-18.1-32.5-42.5c0.1-3.1-3.6-8.3-6.6-9.2c-21.8-6.8-33.1-23.9-26.9-46.1c3.1-11.2,1-15.6-9.3-21
				c-19.7-10.5-24.4-27.3-18.1-51.9c1.1-4.3,1-8.9,1.5-13.3c-4.8,1.3-10.3,1.5-14.4,4c-22.5,14.1-33.4,36.1-39.4,60.9
				c-10.5,43.8-1.9,86.3,14.1,126.7c26,65.8,55.1,130.5,82.6,195.8c2.5,5.8,13.7,13.4-1.1,19.1c-0.9,0.3-0.5,6.6,0.8,9.5
				c2.4,5.3,4.8,11.8,9.2,15c37.3,26.8,57.2,68.4,87,101.5c9,9.9,15.8,20.8,32.7,17.4c6.3-1.2,14.2,5.4,20.1,11.7
				c-12.5-0.3-25.1-0.4-37.6-0.9c-9.2-0.4-10.1,2.8-5.9,10.3c9.1,16.2,56.7,41.7,73.4,38.1c8.8-1.8,17-6.9,25.8-7.7
				c5.2-0.5,11,4.5,16.8,7.1c-14.1,2.8-26.4,5-38.6,7.7c-5.2,1.2-10.2,3.4-15.3,5.2c4.3,3.9,8.3,8.3,13,11.7
				c5.3,3.7,10.8,8,16.9,9.5c43.9,11.3,87.7,22.9,132,32.6c22.2,4.9,40-6.1,54.4-22.8c24.9-28.9,35.5-63.8,40.7-100.5
				c11.9-82.6-1.7-162.4-27.9-240.5c-9.2-27.4-20.1-54.1-30.2-81.2C-657.5,423.3-667.5,404.4-677.5,385.6z"/>
		</g>
	</g>
	<g>
		<g>
			<path class="st1" d="M-662.7,385.6c17-24.1,33.4-48.5,51-72.1c49.3-66.1,105.9-124.3,183.3-157.2c49.7-21.1,100.8-29.8,153.1-7.7
				c2.7,1.2,5.5,2.3,7.9,4.1c5.1,3.8,9.8,7.9,14.7,11.9c-5.7,1.8-11.3,3.6-17.1,5.2c-22.4,6.3-38.7,18.9-46.4,41.9
				c-1.6,4.7-7.7,9.7-12.7,11.1c-19.6,5.4-31.5,16.7-36.4,36.9c-1.4,5.6-8.4,11.8-14.2,14c-23.9,9.1-33.5,22-34.7,47.7
				c-0.2,4.2-4.4,10.1-8.2,11.8c-25,11.2-31.9,23.7-27.4,49.8c0.6,3.6-2.6,9.2-5.7,11.7c-22.1,18.1-23.6,37.9-5.3,58.9
				c3.7,4.2,4.4,12.6,3.8,18.8c-6.2,66.3,36.1,130.5,98.5,144.4c-14.5-10.1-27.1-17.7-38.3-26.9c-31.2-25.8-43.7-60.9-39-99.5
				c1.7-13.6,15.8-28.6,28.2-37.5c18.1-13,29.6-26.4,25.9-49.7c-0.3-2.1,3.9-6.7,6.5-7.2c23.2-4.5,33.5-18.1,32.5-42.5
				c-0.1-3.1,3.6-8.3,6.6-9.2c21.8-6.8,33.1-23.9,26.9-46.1c-3.1-11.2-1-15.6,9.3-21c19.7-10.5,24.4-27.3,18.1-51.9
				c-1.1-4.3-1-8.9-1.5-13.3c4.8,1.3,10.3,1.5,14.4,4c22.5,14.1,33.4,36.1,39.4,60.9c10.5,43.8,1.9,86.3-14.1,126.7
				c-26,65.8-55.1,130.5-82.6,195.8c-2.5,5.8-13.7,13.4,1.1,19.1c0.9,0.3,0.5,6.6-0.8,9.5c-2.4,5.3-4.8,11.8-9.2,15
				c-37.3,26.8-57.2,68.4-87,101.5c-9,9.9-15.8,20.8-32.7,17.4c-6.3-1.2-14.2,5.4-20.1,11.7c12.5-0.3,25.1-0.4,37.6-0.9
				c9.2-0.4,10.1,2.8,5.9,10.3c-9.1,16.2-56.7,41.7-73.4,38.1c-8.8-1.8-17-6.9-25.8-7.7c-5.2-0.5-11,4.5-16.8,7.1
				c14.1,2.8,26.4,5,38.6,7.7c5.2,1.2,10.2,3.4,15.3,5.2c-4.3,3.9-8.3,8.3-13,11.7c-5.3,3.7-10.8,8-16.9,9.5
				c-43.9,11.3-87.7,22.9-132,32.6c-22.2,4.9-40-6.1-54.4-22.8c-24.9-28.9-35.5-63.8-40.7-100.5c-11.9-82.6,1.7-162.4,27.9-240.5
				c9.2-27.4,20.1-54.1,30.2-81.2C-682.6,423.3-672.7,404.4-662.7,385.6z"/>
		</g>
	</g>
	<g>
		<g>
			<g>
				<path class="st0" d="M-655.3,888.2c-26.7,6.9-48.5-10.3-63.9-30.4c-29.6-37.5-36.3-83.4-42.8-129.2
					c-8.9-57.3-1.6-102.2,11.9-157.7c2.4-9.8,5.1-20.8,7.7-30.6c8.8-34.2,21.5-67.5,37.6-98.9c25.6-50.3,58.3-96.8,96.7-137.4
					c0,0,1.8,1.3,1.8,1.3c-14.4,23.7-29,47.3-42.3,71.6c-33.7,59.9-59.5,123.5-79.3,189.1c-17.5,55.9-27.3,102.1-21,161
					c2.8,27.1,5,55,13,81.1c7.7,25.2,21.6,51.4,42.4,68.1c10.6,8.4,24.4,12.4,37.8,9.7C-655.8,886.1-655.3,888.2-655.3,888.2
					L-655.3,888.2z"/>
			</g>
		</g>
	</g>
</g>
<path class="st2" d="M637.3,1872c0,0-245.7-213.8-273-318.5c-27.3-104.7,45.5-182,136.5-182S637.3,1508,637.3,1508
	s45.5-136.5,136.5-136.5s162.4,74.8,136.5,182C884.3,1660.7,637.3,1872,637.3,1872z"/>
<g>
	<g>
		<g>
			<path class="st2" d="M395.7,436.6c24.7-16,49.1-32.6,74.2-47.9c70.4-42.9,144.5-75.9,228.7-77.6c54-1.1,104.7,9.9,144.9,49.9
				c2.1,2.1,4.3,4.2,5.8,6.7c3.3,5.4,6.2,11,9.2,16.5c-5.9-0.5-11.9-0.8-17.8-1.5c-23.2-2.5-43,3.1-58.7,21.6
				c-3.2,3.8-10.7,6.2-15.9,5.6c-20.2-2.2-35.5,3.8-47.5,20.7c-3.4,4.7-12.2,7.8-18.4,7.7c-25.6-0.5-39.3,7.9-49.9,31.3
				c-1.7,3.8-7.8,7.7-12,7.9c-27.4,1.1-38.5,10.1-44,36c-0.8,3.5-5.8,7.6-9.7,8.8c-27.2,8.5-36,26.4-26.8,52.7
				c1.9,5.3-0.6,13.3-3.5,18.8c-30.4,59.2-15.1,134.5,37.6,170.7c-9.7-14.8-18.6-26.5-25.5-39.2c-19.3-35.6-17.9-72.8,0.9-106.9
				c6.6-12,25.3-20.6,40.1-24.3c21.6-5.4,37.3-13.4,42.5-36.5c0.5-2.1,6.1-4.8,8.7-4.3c23.2,4.5,37.8-4.3,46-27.3
				c1-2.9,6.4-6.4,9.5-6.1c22.8,1.9,39.6-9.9,42.1-32.8c1.3-11.6,4.9-14.8,16.5-16c22.2-2.4,32.8-16.2,36.1-41.4
				c0.6-4.4,2.4-8.6,3.6-12.9c4,3,9,5.2,11.9,9.1c15.6,21.4,17.6,45.9,13.9,71.1c-6.6,44.6-30.4,80.8-60.3,112.3
				c-48.7,51.4-99.8,100.5-149.6,150.9c-4.5,4.5-17.7,7.3-6.1,18.2c0.7,0.7-2,6.3-4.3,8.5c-4.2,4.1-8.8,9.2-14.1,10.5
				c-44.6,11-78.5,42.2-118.5,61.8c-12,5.9-22.4,13.4-36.9,4c-5.4-3.5-15.1-0.3-23.1,3.4c11.8,4.4,23.4,9,35.3,13.2
				c8.7,3.1,8.3,6.4,1.6,11.8c-14.5,11.6-68.1,17.5-82.4,8c-7.5-5-13.2-12.8-21-16.8c-4.7-2.4-11.8,0.1-18.2,0.4
				c12,7.8,22.6,14.5,32.9,21.6c4.4,3,8.2,7,12.2,10.5c-5.5,2-10.8,4.6-16.4,6c-6.3,1.5-13,3.4-19.2,2.6
				c-44.9-5.8-89.9-11.5-134.6-18.9c-22.4-3.8-34.8-20.6-42-41.4c-12.4-36.1-9.2-72.4-0.4-108.4c19.7-81,62-150.1,115.5-212.9
				c18.7-22,38.8-42.8,58.2-64.1C363.2,464.2,379.4,450.4,395.7,436.6z"/>
		</g>
	</g>
	<path class="st1" d="M714.3,624.6c0,0-316.8-75.3-389.6-155.4s-44.2-182.3,36.4-224.6s184.3,57.6,184.3,57.6s-23-142,57.6-184.3
		s178.6-9.1,205.4,97.9C835,322.7,714.3,624.6,714.3,624.6z"/>
	<g>
		<g>
			<path class="st2" d="M591.9,764.5c-9.7-14.8-18.6-26.5-25.5-39.2c-19.3-35.6-17.9-72.8,0.9-106.9c6.6-12,25.3-20.6,40.1-24.3
				c21.6-5.4,37.3-13.4,42.5-36.5c0.5-2.1,6.1-4.8,8.7-4.3c23.2,4.5,37.8-4.3,46-27.3c1-2.9,6.4-6.4,9.5-6.1
				c22.8,1.9,39.6-9.9,42.1-32.8c1.3-11.6,4.9-14.8,16.5-16c22.2-2.4,32.8-16.2,36.1-41.4c0.6-4.4,2.4-8.6,3.6-12.9
				c4,3,9,5.2,11.9,9.1c15.6,21.4,17.6,45.9,13.9,71.1c-6.6,44.6-30.4,80.8-60.3,112.3c-48.7,51.4-99.8,100.5-149.6,150.9
				c-4.5,4.5-17.7,7.3-6.1,18.2c0.7,0.7-2,6.3-4.3,8.5c-4.2,4.1-8.8,9.2-14.1,10.5c-44.6,11-78.5,42.2-118.5,61.8
				c-12,5.9-22.4,13.4-36.9,4c-5.4-3.5-15.1-0.3-23.1,3.4c11.8,4.4,23.4,9,35.3,13.2c8.7,3.1,8.3,6.4,1.6,11.8
				c-14.5,11.6-68.1,17.5-82.4,8c-7.5-5-13.2-12.8-21-16.8c-4.7-2.4-11.8,0.1-18.2,0.4c12,7.8,22.6,14.5,32.9,21.6
				c4.4,3,8.2,7,12.2,10.5c-5.5,2-10.8,4.6-16.4,6c-6.3,1.5-13,3.4-19.2,2.6c-44.9-5.8-89.9-11.5-134.6-18.9
				c-22.4-3.8-34.8-20.6-42-41.4c-12.4-36.1-9.2-72.4-0.4-108.4c19.7-81,62-150.1,115.5-212.9"/>
		</g>
	</g>
</g>
</svg>
