<?xml version="1.0" encoding="UTF-8"?><svg id="Layer_2" xmlns="http://www.w3.org/2000/svg" xmlns:xlink="http://www.w3.org/1999/xlink" viewBox="0 0 1024 1024"><defs><style>.cls-1{fill:#fff;}.cls-2{clip-path:url(#clippath);}.cls-3{fill:none;}.cls-4{fill:#9e271f;}</style><clipPath id="clippath"><rect class="cls-3" width="1024" height="1024"/></clipPath></defs><g id="Layer_2-2"><g><rect class="cls-1" width="1024" height="1024"/><g class="cls-2"><g><g><path class="cls-4" d="M570.98,548.23c3.61-3.69,5.85-8.74,5.85-14.32,0-11.31-9.17-20.48-20.48-20.48-3.51,0-6.8,.88-9.69,2.44-2.41-6.54-1.38-14.08,3.1-19.86,5.79-7.46,6.91-17.47,1.13-24.93l-38.88-50.24-38.88,50.24c-5.78,7.47-4.66,17.47,1.13,24.93,4.48,5.77,5.51,13.32,3.1,19.86-2.89-1.55-6.18-2.44-9.69-2.44-11.31,0-20.48,9.17-20.48,20.48,0,5.58,2.24,10.63,5.85,14.32-37.86,54.07-88.61,164.48-33.11,323.98,1.51,4.35,6.89,6.12,10.6,3.39,12-8.84,39.03-24.25,81.48-24.25s69.48,15.42,81.48,24.25c3.71,2.73,9.09,.96,10.6-3.39,55.51-159.51,4.75-269.92-33.11-323.98Zm-119.98,135.94c-18.35,54.13-17.6,105.5-15.22,147.13,0,0-34.33-141.91,21.71-234.26,0,0,5.28,52.41-6.49,87.13Zm16.66-136.27c-7.73,0-13.99-6.26-13.99-13.99s6.26-13.99,13.99-13.99,13.99,6.26,13.99,13.99-6.26,13.99-13.99,13.99Zm74.71-13.99c0-7.73,6.26-13.99,13.99-13.99s13.99,6.26,13.99,13.99-6.26,13.99-13.99,13.99-13.99-6.26-13.99-13.99Zm45.87,297.39c2.38-41.63,3.13-93-15.22-147.13-11.77-34.72-6.49-87.13-6.49-87.13,56.03,92.35,21.71,234.26,21.71,234.26Z"/><path class="cls-4" d="M689.73,859.7c-2.13-32.28-3.42-64.65-7.71-96.76-2.92-32.27-8.72-64.17-13.93-96.16l-10.31-47.54c-3.46-15.85-8.35-31.36-12.46-47.06-4.21-15.69-10.02-30.91-14.95-46.39-5.75-15.2-11.48-30.46-18.13-45.34l-10.23-22.23-11.45-21.69c-8.35-14.23-16.31-28.17-27.38-41.48-1.88-2.26-5.18-2.85-7.75-1.26l-.32,.2-43.1,26.71-43.1-26.71-.32-.2c-2.5-1.55-5.82-1.06-7.75,1.26-11.07,13.31-19.03,27.25-27.38,41.48l-11.45,21.69-10.23,22.23c-6.65,14.88-12.38,30.13-18.13,45.34-4.94,15.49-10.75,30.71-14.95,46.39-4.11,15.7-9.01,31.21-12.46,47.06l-10.31,47.54c-5.2,32-11.01,63.89-13.93,96.16-4.29,32.12-5.59,64.49-7.72,96.76-1.75,32.3-1.32,64.68-2.08,96.99l3.13,96.92,7.22,96.67-5.66-96.74-1.56-96.85c1.28-32.26,1.37-64.56,3.64-96.73,2.64-32.15,4.45-64.37,9.24-96.28,3.42-32.08,9.71-63.69,15.39-95.39l10.99-47c3.68-15.66,8.78-30.93,13.1-46.41,4.41-15.46,10.4-30.38,15.51-45.59,5.92-14.89,11.8-29.84,18.56-44.33l10.38-21.63,11.51-20.98c7.19-11.89,14.71-24.1,23.12-34.67l40.39,27.6c1.1,.91,2.35,1.51,3.72,1.7,.5,.09,.99,0,1.49,0,.36-.02,.72,.04,1.07-.04,1.32-.23,2.51-.84,3.55-1.73l40.26-27.52c8.4,10.57,15.92,22.78,23.12,34.67l11.51,20.98,10.38,21.63c6.76,14.5,12.65,29.44,18.56,44.33,5.11,15.21,11.1,30.14,15.51,45.59,4.31,15.48,9.42,30.75,13.09,46.41l10.99,47c5.68,31.69,11.97,63.31,15.39,95.39,4.79,31.9,6.6,64.12,9.24,96.28,2.27,32.18,2.35,64.48,3.64,96.73l-1.56,96.85-5.66,96.74,7.22-96.67,3.13-96.92c-.76-32.31-.33-64.69-2.08-96.99Z"/><g><path class="cls-4" d="M389.45,681.28l-17.88-.98c-.39,2.16-.78,4.32-1.18,6.49-.93,5.11-1.87,10.27-2.8,15.44l19.16,1.05c.67-7.38,1.57-14.72,2.7-22Z"/><path class="cls-4" d="M212.11,760.44l-20.4,34.15c-3.13,5.24-1.42,12.03,3.82,15.16,1.78,1.06,3.73,1.57,5.66,1.57,3.76,0,7.43-1.92,9.5-5.39l20.4-34.15c5.87-9.81,17.84-13.9,28.48-9.71l69.45,27.31c.68-7.61,1.49-15.22,2.43-22.81l-63.79-25.09c-20.75-8.16-44.12-.19-55.56,18.96Z"/><path class="cls-4" d="M385.7,718.94l-21.22,1.19c-1.25,7.43-2.44,14.89-3.51,22.35l24.41-1.37c-.12-7.44-.01-14.83,.32-22.17Z"/><path class="cls-4" d="M302.6,720.08l-91.79-68.7c-4.84-3.62-7.04-9.75-5.6-15.61l3.13-12.81c1.45-5.93-2.19-11.92-8.12-13.37-5.97-1.41-11.92,2.19-13.37,8.12l-3.13,12.81c-3.53,14.5,1.9,29.64,13.84,38.57l91.79,68.7c6.44,4.81,14.28,7.41,22.28,7.41,.69,0,1.38-.02,2.08-.06l20.24-1.14c.9-7.46,1.9-14.91,2.99-22.32l-24.47,1.38c-3.51,.21-7.03-.86-9.87-2.97Z"/><path class="cls-4" d="M306.33,670.71l-66.76-84.03c-3.4-4.29-4.66-10.02-3.36-15.34l3.86-15.81c1.45-5.93-2.19-11.92-8.12-13.37-5.92-1.4-11.92,2.19-13.37,8.12l-3.86,15.81c-2.9,11.9-.09,24.74,7.54,34.34l66.76,84.03c7.1,8.94,17.71,14.42,29.11,15.05l22.07,1.21c1.03-6.36,2.08-12.69,3.12-18.97,.17-.99,.33-1.99,.49-2.98l-24.47-1.34c-5.09-.28-9.83-2.73-13-6.72Z"/><path class="cls-4" d="M387.82,778.4l-15.83,1.45c-3.59,.35-7.27-.19-10.63-1.52l-4.84-1.9c-.97,7.54-1.81,15.14-2.55,22.74,6.36,2.38,13.28,3.31,20.02,2.71l16.94-1.55c-1.25-7.35-2.28-14.65-3.11-21.92Z"/></g><g><path class="cls-4" d="M637.25,703.28l19.16-1.05c-.93-5.17-1.87-10.33-2.8-15.45-.39-2.16-.78-4.32-1.18-6.48l-17.88,.98c1.13,7.28,2.03,14.62,2.7,22Z"/><path class="cls-4" d="M662.63,778.33c-3.35,1.33-7.05,1.84-10.63,1.52l-15.83-1.45c-.83,7.27-1.87,14.58-3.11,21.92l16.93,1.55c6.76,.58,13.67-.33,20.03-2.71-.74-7.6-1.58-15.19-2.55-22.74l-4.84,1.9Z"/><path class="cls-4" d="M638.63,741.11l24.41,1.37c-1.07-7.46-2.26-14.92-3.51-22.35l-21.22-1.19c.33,7.34,.44,14.73,.32,22.17Z"/><path class="cls-4" d="M712.36,745.2c8,0,15.84-2.6,22.28-7.41l91.78-68.7c11.95-8.92,17.38-24.06,13.85-38.57l-3.12-12.81c-1.44-5.94-7.42-9.54-13.36-8.13-5.93,1.45-9.57,7.43-8.13,13.36l3.12,12.81c1.43,5.87-.77,12-5.6,15.62l-91.78,68.7c-2.83,2.12-6.33,3.17-9.87,2.97l-24.47-1.38c1.09,7.41,2.09,14.86,2.99,22.32l20.24,1.14c.69,.04,1.39,.06,2.08,.06Z"/><path class="cls-4" d="M811.9,760.44c-11.45-19.13-34.8-27.1-55.56-18.95l-63.79,25.09c.94,7.59,1.75,15.2,2.43,22.81l69.45-27.31c10.67-4.18,22.63-.09,28.49,9.71l20.4,34.15c2.07,3.47,5.74,5.39,9.5,5.39,1.93,0,3.88-.5,5.66-1.57,5.24-3.13,6.95-9.92,3.82-15.16l-20.4-34.15Z"/><path class="cls-4" d="M734.98,684.46l66.76-84.03c7.63-9.59,10.45-22.43,7.54-34.34l-3.85-15.81c-1.45-5.93-7.43-9.52-13.36-8.13-5.93,1.45-9.57,7.43-8.13,13.36l3.85,15.81c1.3,5.32,.04,11.06-3.37,15.34l-66.76,84.03c-3.17,4-7.91,6.44-13,6.72l-24.47,1.34c.16,.99,.33,1.98,.49,2.97,1.04,6.28,2.09,12.61,3.12,18.98l22.07-1.21c11.4-.63,22.02-6.11,29.11-15.05Z"/></g></g><g><g><path class="cls-4" d="M626.71,348.43c14.79-14.16,35.24-31.27,46.97-40.9,4.9-4.02,4.9-11.28,.32-15.65-43.26-41.3-66.18-95-73.22-113.6-.97-2.57-4.61-2.73-5.87-.29-41.27,80.12,7.52,150.69,22.87,169.84,2.25,2.8,6.33,3.1,8.92,.61Z"/><path class="cls-4" d="M597.36,133.95c20.37,14.29,73.29,53.41,89.87,85.1,0,0-15.44-4.21-31.37-13.34-2.59-1.49-5.68,1.01-4.66,3.82,5.63,15.57,20.92,49.58,53.58,74.65,2.95,2.26,6.96,2.67,10.39,1.25,13.49-5.58,50.5-18.81,92.89-16.07,4.31,.28,7.64-3.66,6.28-7.76-10.36-31.15-57.13-136.62-215.11-133.55-3.11,.06-4.41,4.1-1.87,5.89Z"/><path class="cls-4" d="M631.55,594.22c-1.62-5.43-3.3-11.05-4.85-16.64-2.73-9.57-6.23-19.31-9.61-28.73-1.89-5.25-3.83-10.68-5.66-16.11l-.76-1.91c-.52-1.31-1.05-2.63-1.57-3.95-15.02,8.14-24.41,16.44-24.41,16.44,27.49,28.72,37.34,68.76,37.34,68.76,0,0,5.46-2.77,13.33-4.93-1.24-4.35-2.53-8.68-3.8-12.95Z"/><path class="cls-4" d="M765.11,290.86c-91.88,21.3-130.21,81.53-130.21,81.53,29.81,94.31,115,131.43,115,131.43-2.43,20.69-22.51,34.07-22.51,34.07-30.63-29.21-63.7-30.01-90.28-22.54,.64,1.68,1.27,3.36,1.91,5.03l.8,2.1,.08,.25c1.71,5.37,3.58,10.85,5.39,16.15,3.39,9.94,6.89,20.22,9.7,30.69,1.45,5.53,3.01,11.1,4.53,16.5,1.87,6.65,3.77,13.46,5.52,20.34,1.76,.54,3.49,1.21,5.18,2.05,20.69,10.34,60.24-1.22,91.88-38.33,31.64-37.12,73.62-150.9,77.27-177.06,3.65-26.16,17.65-123.52-74.23-102.22Zm19.02,182.45s20.52-44.32,24.35-81.39c3.49-33.83-9.3-81.39-9.3-81.39,59.67,69.09-15.05,162.78-15.05,162.78Z"/></g><g><path class="cls-4" d="M423.22,178.28c-7.04,18.59-29.96,72.29-73.22,113.6-4.58,4.37-4.57,11.63,.32,15.65,11.73,9.63,32.18,26.75,46.97,40.9,2.6,2.49,6.67,2.19,8.92-.61,15.35-19.14,64.15-89.71,22.87-169.84-1.26-2.44-4.89-2.27-5.87,.29Z"/><path class="cls-4" d="M215.94,269.38c42.39-2.74,79.41,10.49,92.89,16.07,3.43,1.42,7.44,1.01,10.39-1.25,32.67-25.08,47.95-59.09,53.58-74.65,1.02-2.81-2.07-5.31-4.66-3.82-15.93,9.13-31.37,13.34-31.37,13.34,16.58-31.7,69.5-70.82,89.87-85.1,2.54-1.78,1.24-5.83-1.87-5.89-157.98-3.07-204.75,102.4-215.11,133.55-1.36,4.09,1.97,8.03,6.28,7.76Z"/><path class="cls-4" d="M296.62,537.89s-20.08-13.39-22.51-34.07c0,0,85.18-37.12,115-131.43,0,0-38.33-60.24-130.21-81.53-91.88-21.3-77.88,76.06-74.23,102.22,3.65,26.16,45.63,139.95,77.27,177.06,31.64,37.12,71.19,48.68,91.88,38.33,1.69-.84,3.42-1.51,5.18-2.05,1.74-6.89,3.65-13.69,5.52-20.34,1.51-5.39,3.08-10.97,4.51-16.44,2.82-10.52,6.33-20.8,9.71-30.74,1.81-5.3,3.67-10.78,5.39-16.15l.08-.25,.83-2.2c.62-1.64,1.24-3.29,1.87-4.94-26.59-7.47-59.66-6.67-90.29,22.54Zm-71.8-227.37s-12.79,47.57-9.3,81.39c3.83,37.07,24.35,81.39,24.35,81.39,0,0-74.72-93.7-15.05-162.78Z"/><path class="cls-4" d="M413.33,530.83l-.76,1.91c-1.83,5.42-3.77,10.84-5.66,16.09-3.38,9.42-6.88,19.16-9.63,28.8-1.54,5.53-3.22,11.14-4.83,16.57-1.27,4.27-2.56,8.6-3.81,12.96,7.87,2.16,13.33,4.93,13.33,4.93,0,0,9.85-40.04,37.34-68.76,0,0-9.39-8.3-24.41-16.44-.52,1.32-1.05,2.64-1.57,3.95Z"/></g></g><path class="cls-4" d="M595.26,900.48c-9.32-10.47-22.92-17.74-36.44-22.76-30.21-11.22-63.44-11.22-93.65,0-13.51,5.02-27.11,12.29-36.44,22.76,0,0,14.03,49.04,13.27,77.22,0,0,46.81-18.26,69.99-18.26s69.99,18.26,69.99,18.26c-.75-28.17,13.27-77.22,13.27-77.22Z"/><path class="cls-4" d="M577.38,994.28c-6.52-7.32-15.71-12.66-25.15-16.52-25.73-10.54-54.73-10.54-80.46,0-9.43,3.86-18.62,9.19-25.15,16.52,0,0,11.02,38.51,10.42,60.63,0,0,36.76-14.34,54.95-14.34s54.95,14.34,54.95,14.34c-.59-22.12,10.42-60.63,10.42-60.63Z"/></g></g></g></g></svg>