<?xml version="1.0" encoding="UTF-8"?><svg id="Layer_2" xmlns="http://www.w3.org/2000/svg" viewBox="0 0 1024 1024"><defs><style>.cls-1{fill:#fff;}.cls-2{fill:#9e2721;}</style></defs><g id="Layer_1-2"><g><rect class="cls-2" width="1024" height="1024"/><path class="cls-1" d="M383.38,311.87c28.04-17.68,55.69-36,84.19-52.91,79.81-47.36,163.72-83.43,258.48-84.13,60.76-.45,117.71,12.56,162.43,58.19,2.32,2.37,4.74,4.81,6.42,7.63,3.63,6.1,6.81,12.46,10.17,18.71-6.67-.63-13.35-1.12-20-1.92-26.03-3.13-48.4,2.9-66.35,23.55-3.66,4.21-12.18,6.8-17.96,6.08-22.68-2.81-39.96,3.78-53.78,22.61-3.84,5.23-13.82,8.61-20.84,8.39-28.75-.88-44.3,8.37-56.65,34.54-2,4.23-8.89,8.58-13.63,8.71-30.83,.85-43.45,10.87-50.06,39.94-.9,3.96-6.64,8.42-11.01,9.73-30.78,9.21-40.92,29.24-30.91,58.93,2.01,5.97-.9,14.96-4.18,21.16-35.06,66.23-18.89,151.18,39.98,192.6-10.72-16.8-20.54-30.07-28.14-44.5-21.25-40.32-19.12-82.17,2.45-120.32,7.61-13.47,28.76-22.87,45.45-26.77,24.43-5.72,42.2-14.59,48.37-40.45,.55-2.32,6.91-5.3,9.89-4.69,26.08,5.36,42.65-4.29,52.16-30.1,1.2-3.26,7.34-7.06,10.82-6.73,25.59,2.4,44.73-10.58,47.88-36.35,1.6-13.04,5.73-16.59,18.76-17.82,25.02-2.36,37.17-17.77,41.24-46.14,.71-4.93,2.77-9.67,4.21-14.5,4.47,3.43,10.11,6.03,13.22,10.43,17.28,24.34,19.16,51.92,14.61,80.26-8.04,50.08-35.36,90.53-69.39,125.56-55.52,57.18-113.69,111.78-170.46,167.76-5.08,5.01-20.05,7.98-7.17,20.34,.78,.75-2.36,7.1-4.94,9.5-4.82,4.5-10.05,10.21-16,11.6-50.33,11.75-88.97,46.38-134.28,67.86-13.61,6.45-25.41,14.75-41.54,3.98-6.02-4.01-17.03-.54-26.01,3.51,13.16,5.13,26.26,10.46,39.52,15.33,9.75,3.58,9.3,7.32,1.64,13.3-16.5,12.89-76.92,18.8-92.82,7.9-8.32-5.7-14.7-14.57-23.44-19.19-5.22-2.76-13.32-.09-20.53,.15,13.43,8.98,25.27,16.61,36.77,24.72,4.91,3.47,9.11,7.95,13.63,11.97-6.16,2.22-12.19,5.06-18.53,6.51-7.1,1.62-14.71,3.61-21.7,2.61-50.49-7.19-101.06-14.15-151.24-23.19-25.19-4.54-38.93-23.64-46.68-47.23-13.41-40.83-9.29-81.62,1.09-122.05,23.35-90.93,71.91-168.06,132.92-237.97,21.35-24.47,44.25-47.59,66.44-71.33,18.5-15.26,37.01-30.53,55.51-45.79Z"/></g></g></svg>